<svg width="44" height="44" viewBox="0 0 44 44" fill="none" xmlns="http://www.w3.org/2000/svg">
<g clip-path="url(#clip0_27_7935)">
<path d="M35.2 0H8.8C3.93989 0 0 3.93989 0 8.8V35.2C0 40.0601 3.93989 44 8.8 44H35.2C40.0601 44 44 40.0601 44 35.2V8.8C44 3.93989 40.0601 0 35.2 0Z" fill="#EE2737"/>
<path d="M34.2214 20.5756H28.8573V24.1148H32.2613C32.5338 24.1148 32.6976 24.3053 32.6976 24.6043C32.6976 25.9377 30.5737 27.6274 28.5317 27.6274C25.6725 27.6274 23.358 25.2577 23.358 21.7471C23.358 18.2366 25.6725 16.1373 28.6136 16.1373C30.8727 16.1373 32.2614 17.3088 32.5071 19.1603H37.2445C37.0806 14.9125 33.6234 12 28.6669 12C24.2326 12 20.1404 14.382 19.061 19.1583C20.632 20.5981 21.5229 22.6504 21.5229 24.8521C21.5229 25.995 21.271 27.0826 20.7815 28.0903C22.5675 30.3617 25.3448 31.4963 28.2572 31.4963C30.545 31.4963 32.3965 30.3248 32.9413 28.5286V31.2792H37.1892V23.5741C37.1892 22.1588 36.1549 20.5797 34.2214 20.5797V20.5756Z" fill="white"/>
<path d="M17.9428 16.3544H18.8726C19.7963 14.5807 21.2034 13.1654 22.9648 12.2151H17.7932C17.7932 12.2151 17.7932 12.2151 17.7932 12.213C17.6601 12.213 17.5208 12.213 17.3734 12.213C16.4558 12.213 15.2699 12.213 14.0513 12.213H7.9355L6.30108 23.4573H10.6022C11.1736 22.6668 11.8557 22.3145 12.9985 22.3145C14.4957 22.3145 15.53 23.3488 15.53 24.846C15.53 26.3432 14.4957 27.3509 12.9698 27.3509C11.5812 27.3509 10.7374 26.6422 10.5469 25.4441H6C6.08193 28.8481 9.10295 31.4881 12.9698 31.4881C13.0518 31.4881 13.1337 31.4881 13.2156 31.484C13.2382 31.484 13.2607 31.484 13.2812 31.482C13.3488 31.4799 13.4163 31.4759 13.4839 31.4718C13.4983 31.4718 13.5126 31.4718 13.5269 31.4697C13.6068 31.4656 13.6867 31.4574 13.7666 31.4513C13.785 31.4513 13.8055 31.4472 13.8239 31.4451C13.8874 31.439 13.953 31.4328 14.0165 31.4246C14.0349 31.4226 14.0554 31.4205 14.0738 31.4185C14.1516 31.4083 14.2295 31.398 14.3073 31.3857C14.3196 31.3857 14.3319 31.3816 14.3442 31.3796C14.4118 31.3693 14.4773 31.3571 14.5428 31.3448C14.5633 31.3407 14.5817 31.3366 14.6022 31.3345C14.7579 31.3038 14.9095 31.271 15.061 31.2321C15.0794 31.228 15.0979 31.2219 15.1143 31.2178C15.1798 31.2014 15.2453 31.183 15.3088 31.1645C15.3191 31.1625 15.3293 31.1584 15.3396 31.1563C15.4153 31.1338 15.4891 31.1113 15.5628 31.0887C15.5771 31.0847 15.5915 31.0806 15.6038 31.0744C15.6673 31.0539 15.7287 31.0314 15.7902 31.0109C15.8045 31.0068 15.8168 31.0007 15.8311 30.9966C15.9048 30.97 15.9765 30.9433 16.0482 30.9147C16.0544 30.9126 16.0585 30.9106 16.0646 30.9085C16.1322 30.8819 16.1977 30.8553 16.2633 30.8266C16.2776 30.8204 16.2899 30.8143 16.3042 30.8082C16.4456 30.7467 16.5848 30.6791 16.72 30.6095C16.7303 30.6033 16.7425 30.5972 16.7528 30.5931C16.8183 30.5603 16.8818 30.5255 16.9453 30.4907C16.9494 30.4907 16.9515 30.4866 16.9556 30.4845C17.0252 30.4456 17.0928 30.4067 17.1583 30.3658C17.1645 30.3617 17.1706 30.3576 17.1767 30.3555C17.2382 30.3186 17.2996 30.2797 17.359 30.2408C17.3652 30.2367 17.3713 30.2326 17.3775 30.2285C17.5086 30.1446 17.6335 30.0544 17.7584 29.9623C17.7646 29.9582 17.7707 29.952 17.7769 29.9479C17.8997 29.8558 18.0206 29.7575 18.1373 29.6571C18.1414 29.653 18.1455 29.6509 18.1496 29.6469C18.3278 29.4932 18.4958 29.3314 18.6555 29.1594C18.6555 29.1594 18.6576 29.1573 18.6596 29.1553C18.7661 29.0406 18.8685 28.9239 18.9668 28.803C18.9668 28.801 18.9709 28.7989 18.973 28.7969C19.0713 28.676 19.1635 28.5511 19.2536 28.4241C19.2536 28.4241 19.2536 28.4221 19.2556 28.42C19.313 28.3381 19.3662 28.2562 19.4195 28.1722C19.4912 28.0575 19.5608 27.9407 19.6263 27.822C20.1056 26.9351 20.3739 25.9274 20.3739 24.8439C20.3739 22.7897 19.4748 20.9668 18.039 19.783C18.0329 19.7768 18.0247 19.7707 18.0185 19.7666C17.9919 19.7441 17.9632 19.7215 17.9366 19.701C17.9264 19.6929 17.9182 19.6867 17.9079 19.6785C17.8813 19.658 17.8547 19.6376 17.826 19.615C17.8178 19.6089 17.8076 19.6027 17.7994 19.5945C17.7994 19.5945 17.7973 19.5925 17.7953 19.5904C17.7687 19.57 17.74 19.5495 17.7134 19.529C17.7031 19.5229 17.6929 19.5147 17.6847 19.5085C17.656 19.488 17.6273 19.4676 17.5987 19.4471C17.5925 19.443 17.5843 19.4368 17.5782 19.4327C17.443 19.3406 17.3037 19.2545 17.1624 19.1747C17.1522 19.1685 17.1399 19.1624 17.1296 19.1562C17.101 19.1399 17.0743 19.1255 17.0457 19.1091C17.0313 19.1009 17.017 19.0927 17.0027 19.0866C16.976 19.0723 16.9494 19.0579 16.9207 19.0436C16.9043 19.0354 16.89 19.0272 16.8736 19.019C16.847 19.0047 16.8204 18.9924 16.7937 18.9801C16.7774 18.9719 16.761 18.9637 16.7446 18.9555C16.718 18.9432 16.6913 18.9309 16.6647 18.9187C16.6483 18.9105 16.6319 18.9043 16.6135 18.8961C16.5869 18.8838 16.5582 18.8715 16.5316 18.8593C16.5152 18.8531 16.5009 18.847 16.4845 18.8408C16.4251 18.8162 16.3657 18.7917 16.3063 18.7691C16.294 18.765 16.2838 18.7609 16.2715 18.7548C16.2469 18.7446 16.2203 18.7364 16.1957 18.7282C16.1752 18.72 16.1547 18.7138 16.1322 18.7056C16.1076 18.6975 16.083 18.6893 16.0585 18.6811C16.0359 18.6729 16.0134 18.6667 15.9909 18.6585C15.9663 18.6503 15.9417 18.6442 15.9192 18.636C15.8967 18.6299 15.8721 18.6217 15.8495 18.6155C15.825 18.6094 15.8024 18.6012 15.7779 18.595C15.7533 18.5889 15.7287 18.5807 15.7041 18.5746C15.6816 18.5684 15.657 18.5623 15.6345 18.5561C15.6079 18.55 15.5833 18.5438 15.5567 18.5377C15.5341 18.5316 15.5116 18.5275 15.4891 18.5213C15.4604 18.5152 15.4297 18.509 15.401 18.5029C15.3826 18.4988 15.3621 18.4947 15.3437 18.4906C15.2965 18.4803 15.2474 18.4722 15.1982 18.4619C15.1839 18.4599 15.1675 18.4578 15.1532 18.4537C15.1184 18.4476 15.0835 18.4414 15.0487 18.4353C15.0282 18.4312 15.0098 18.4291 14.9893 18.4271C14.9586 18.423 14.9279 18.4189 14.8972 18.4148C14.8767 18.4128 14.8541 18.4087 14.8337 18.4066C14.8029 18.4025 14.7743 18.4005 14.7435 18.3964C14.7231 18.3943 14.7005 18.3923 14.678 18.3902C14.6473 18.3882 14.6166 18.3841 14.5879 18.382C14.5674 18.382 14.5449 18.3779 14.5244 18.3779C14.4937 18.3759 14.4609 18.3738 14.4302 18.3718C14.4097 18.3718 14.3892 18.3697 14.3687 18.3677C14.3339 18.3677 14.2991 18.3657 14.2643 18.3636C14.2479 18.3636 14.2295 18.3636 14.2131 18.3636C14.1598 18.3636 14.1086 18.3636 14.0554 18.3636C12.4209 18.3636 11.6058 18.7446 11.0323 19.1808L11.5218 16.3482H17.9346L17.9428 16.3544Z" fill="white"/>
</g>
<defs>
<clipPath id="clip0_27_7935">
<rect width="44" height="44" fill="white"/>
</clipPath>
</defs>
</svg>
