<svg width="44" height="44" viewBox="0 0 44 44" fill="none" xmlns="http://www.w3.org/2000/svg">
    <g clip-path="url(#26rxgsd0ga)">
        <path d="M37.223 0H6.777A6.777 6.777 0 0 0 0 6.777v30.446A6.777 6.777 0 0 0 6.777 44h30.446A6.777 6.777 0 0 0 44 37.223V6.777A6.777 6.777 0 0 0 37.223 0z" fill="url(#eln098aohb)"/>
        <path d="m30.439 1.964.482.433.562-.325-.262.593.482.434-.645-.067-.263.593-.136-.634-.646-.067.562-.326-.136-.634zM41.537 11.04l-.036.422.389.165-.412.095-.037.42-.218-.36-.412.094.278-.32-.219-.362.39.165.277-.319zM39.674 3.635l.13.401h.423l-.342.25.13.402-.341-.249-.342.249.13-.403-.342-.249h.423l.13-.401zM26.512 4.818l.218.215.272-.142-.136.274.218.213-.303-.044-.136.274-.05-.302-.304-.045.272-.142-.05-.3zM36.846 12.031l-.024.239.219.097-.235.05-.024.24-.12-.209-.235.052.16-.18-.121-.207.22.097.16-.179zM34.308 7.328a.331.331 0 1 1-.662.001.331.331 0 0 1 .662 0zM19.373 2.847a.187.187 0 1 1-.374 0 .187.187 0 0 1 .374 0zM41.894 16.324a.229.229 0 1 1-.458 0 .229.229 0 0 1 .458 0z" fill="#C1D9F1"/>
        <mask id="1qn6na3c0c" style="mask-type:luminance" maskUnits="userSpaceOnUse" x="0" y="0" width="44" height="44">
            <path d="M37.223 0H6.777A6.777 6.777 0 0 0 0 6.777v30.446A6.777 6.777 0 0 0 6.777 44h30.446A6.777 6.777 0 0 0 44 37.223V6.777A6.777 6.777 0 0 0 37.223 0z" fill="#fff"/>
        </mask>
        <g mask="url(#1qn6na3c0c)">
            <path d="M52.313 19.39h-57.25v25.473h57.25V19.39z" fill="url(#7fobjkbsod)"/>
        </g>
        <path d="M5.97 17.315H4.916v-4.113c-.103.144-.431.216-.662.216h-.44v-.91h.4c.432 0 .687-.177.75-.784h1.007v5.591zM8.869 11.661c1.15 0 1.949.687 1.949 1.733 0 .75-.44 1.35-1.326 1.788l-.862.432c-.32.167-.703.438-.703.782h2.892v.918h-3.93l-.008-.774c0-.902.758-1.493 1.293-1.757l.895-.447c.456-.224.687-.543.687-.95 0-.519-.343-.854-.886-.854-.6 0-.935.454-.918 1.134H6.889c-.024-1.238.759-2.005 1.98-2.005zM14.874 14.728v2.587h-.966v-.599c-.168.4-.63.663-1.206.663-.799 0-1.342-.511-1.342-1.206 0-.783.607-1.27 1.51-1.27h.743c.199 0 .295-.111.295-.27 0-.392-.304-.672-.822-.672s-.83.327-.847.687h-.878c.047-.799.727-1.421 1.773-1.421 1.045 0 1.74.59 1.74 1.501zm-.966.886v-.063h-.902c-.415 0-.694.231-.694.583 0 .31.255.519.622.519.615 0 .974-.432.974-1.038zM15.689 13.291h.982v.631c.2-.407.6-.695 1.166-.695.639 0 1.079.271 1.254.767.183-.415.694-.767 1.333-.767.87 0 1.43.63 1.43 1.485v2.603h-.974v-2.307c0-.567-.295-.942-.767-.942-.527 0-.854.375-.854.942v2.307h-.975v-2.307c0-.567-.296-.942-.767-.942-.52 0-.847.375-.847.942v2.307h-.982v-4.024h.001zM25.92 12.077v1.214h1.118v.822h-1.119v1.757c0 .407.216.615.583.615h.535v.83h-.647c-.878 0-1.454-.51-1.454-1.405v-1.797h-.79v-.822h.535c.16 0 .255-.072.255-.264v-.95h.983zM27.325 15.303c0-1.197.879-2.076 2.108-2.076 1.23 0 2.1.879 2.1 2.076 0 1.198-.878 2.077-2.1 2.077s-2.108-.88-2.108-2.077zm3.219 0c0-.727-.447-1.23-1.11-1.23s-1.118.503-1.118 1.23.447 1.23 1.118 1.23 1.11-.503 1.11-1.23z" fill="#001B33"/>
        <path d="M5.97 26.899H4.916v-4.113c-.103.144-.431.215-.662.215h-.44v-.91h.4c.432 0 .687-.176.75-.783h1.007v5.591zM8.869 21.246c1.15 0 1.949.686 1.949 1.732 0 .75-.44 1.35-1.326 1.789l-.862.431c-.32.168-.703.44-.703.783h2.892v.919h-3.93l-.008-.775c0-.902.758-1.493 1.293-1.756l.895-.448c.456-.223.687-.543.687-.95 0-.52-.343-.855-.886-.855-.6 0-.935.455-.918 1.134H6.889c-.024-1.237.759-2.003 1.98-2.003v-.001zM11.553 22.874h.974v.503c.24-.343.678-.567 1.213-.567 1.159 0 1.869.847 1.869 2.077s-.759 2.076-1.94 2.076c-.488 0-.92-.19-1.142-.503v2.068h-.974v-5.654zm3.082 2.013c0-.743-.432-1.23-1.078-1.23-.647 0-1.095.486-1.095 1.23s.432 1.23 1.095 1.23c.662 0 1.078-.486 1.078-1.23zM16.273 22.874h.982v.63c.2-.407.6-.694 1.166-.694.638 0 1.078.272 1.253.767.184-.414.695-.767 1.334-.767.87 0 1.43.631 1.43 1.486v2.603h-.974v-2.308c0-.566-.296-.942-.767-.942-.528 0-.855.376-.855.942V26.9h-.975v-2.308c0-.566-.295-.942-.767-.942-.519 0-.846.376-.846.942V26.9h-.982v-4.025zM4.006 30.892h3.713v.911H5.05v1.421h2.141v.91h-2.14v2.349H4.005v-5.59zM9.987 33.28c-.622 0-.87.535-.87 1.302v1.901h-.983v-4.025h.983v.711c.2-.51.51-.71 1.03-.71h.471v.822h-.63zM14.763 35.142c-.152.854-.902 1.405-1.893 1.405-1.318 0-2.052-1.038-2.052-2.092s.655-2.061 1.973-2.061c1.317 0 1.956.982 1.956 1.94 0 .136-.008.256-.016.336h-2.97c.072.647.486 1.062 1.11 1.062.503 0 .83-.207.935-.59h.958-.001zm-2.979-1.119h1.98c-.04-.51-.39-.895-.973-.895-.551 0-.902.287-1.007.895zM19.155 35.142c-.152.854-.902 1.405-1.893 1.405-1.318 0-2.052-1.038-2.052-2.092s.655-2.061 1.973-2.061 1.956.982 1.956 1.94c0 .136-.008.256-.016.336h-2.97c.071.647.487 1.062 1.11 1.062.502 0 .83-.207.934-.59h.958zm-2.979-1.119h1.98c-.04-.51-.39-.895-.973-.895-.55 0-.902.287-1.007.895zM21.663 30.892h1.813c1.54 0 2.858.927 2.858 2.796 0 1.868-1.318 2.795-2.858 2.795h-1.813v-5.59zm1.717 4.673c.966 0 1.884-.495 1.884-1.877 0-1.383-.919-1.885-1.884-1.885h-.671v3.762h.67zM30.44 33.895v2.588h-.967v-.6c-.168.4-.63.663-1.206.663-.799 0-1.341-.51-1.341-1.206 0-.783.607-1.27 1.509-1.27h.743c.2 0 .295-.112.295-.272 0-.391-.304-.67-.823-.67-.519 0-.83.327-.846.686h-.878c.048-.798.727-1.421 1.773-1.421 1.045 0 1.74.59 1.74 1.502zm-.967.887v-.065h-.902c-.415 0-.695.233-.695.584 0 .311.255.519.623.519.615 0 .974-.432.974-1.038zM32.62 31.244v1.213h1.118v.823H32.62v1.757c0 .407.216.615.583.615h.535v.83h-.647c-.879 0-1.454-.51-1.454-1.405V33.28h-.791v-.823h.535c.16 0 .255-.071.255-.263v-.95h.984zM37.611 33.895v2.588h-.966v-.6c-.168.4-.631.663-1.206.663-.799 0-1.341-.51-1.341-1.206 0-.783.606-1.27 1.508-1.27h.743c.2 0 .296-.112.296-.272 0-.391-.304-.67-.823-.67-.52 0-.83.327-.846.686h-.878c.047-.798.727-1.421 1.772-1.421 1.046 0 1.741.59 1.741 1.502zm-.965.887v-.065h-.903c-.414 0-.695.233-.695.584 0 .311.256.519.624.519.615 0 .974-.432.974-1.038z" fill="#fff"/>
        <path d="M5.654 16.929H4.6v-4.113c-.103.143-.431.215-.662.215h-.44v-.91h.4c.432 0 .687-.177.75-.783h1.007v5.59zM8.554 11.274c1.15 0 1.948.687 1.948 1.734 0 .75-.439 1.35-1.325 1.788l-.862.432c-.32.168-.703.439-.703.783h2.891v.919H6.574l-.008-.775c0-.902.758-1.493 1.293-1.757l.895-.447c.456-.224.687-.543.687-.95 0-.52-.343-.855-.886-.855-.6 0-.935.454-.918 1.134H6.574c-.024-1.238.759-2.005 1.98-2.005zM14.56 14.34v2.589h-.967v-.6c-.168.4-.631.663-1.206.663-.799 0-1.342-.51-1.342-1.206 0-.783.607-1.27 1.51-1.27h.742c.2 0 .296-.112.296-.271 0-.392-.304-.672-.822-.672s-.83.329-.847.687h-.878c.047-.798.727-1.421 1.773-1.421 1.045 0 1.74.59 1.74 1.502zm-.967.888v-.065h-.902c-.415 0-.695.232-.695.583 0 .311.256.519.623.519.615 0 .974-.431.974-1.038zM15.374 12.903h.982v.631c.2-.407.6-.694 1.166-.694.639 0 1.079.271 1.254.767.183-.416.694-.767 1.334-.767.87 0 1.43.63 1.43 1.486v2.603h-.975V14.62c0-.567-.295-.942-.767-.942-.527 0-.854.375-.854.942v2.308h-.975V14.62c0-.567-.296-.942-.767-.942-.52 0-.847.375-.847.942v2.308h-.982v-4.026h.001zM25.605 11.69v1.213h1.118v.823h-1.118v1.757c0 .407.215.615.582.615h.535v.83h-.647c-.878 0-1.454-.51-1.454-1.405v-1.797h-.79v-.823h.535c.16 0 .255-.071.255-.263v-.95h.983zM27.01 14.915c0-1.197.879-2.076 2.108-2.076 1.23 0 2.1.878 2.1 2.076 0 1.199-.878 2.077-2.1 2.077s-2.108-.878-2.108-2.077zm3.218 0c0-.726-.447-1.23-1.11-1.23S28 14.19 28 14.915c0 .728.447 1.23 1.118 1.23s1.11-.502 1.11-1.23z" fill="#FFD300"/>
        <path d="M5.654 26.512H4.6V22.4c-.103.144-.431.216-.662.216h-.44v-.91h.4c.432 0 .687-.177.75-.784h1.007v5.591zM8.554 20.858c1.15 0 1.948.687 1.948 1.732 0 .752-.439 1.35-1.325 1.789l-.862.431c-.32.168-.703.44-.703.783h2.891v.918H6.574l-.008-.774c0-.902.758-1.493 1.293-1.757l.895-.447c.456-.224.687-.544.687-.951 0-.52-.343-.855-.886-.855-.6 0-.935.455-.918 1.135H6.574c-.024-1.238.759-2.005 1.98-2.005zM11.237 22.487h.974v.503c.24-.343.678-.566 1.213-.566 1.159 0 1.869.846 1.869 2.076s-.759 2.076-1.94 2.076c-.488 0-.92-.192-1.142-.503v2.068h-.974v-5.654zm3.083 2.012c0-.743-.432-1.23-1.078-1.23-.647 0-1.095.487-1.095 1.23s.432 1.23 1.095 1.23c.662 0 1.078-.487 1.078-1.23zM15.957 22.487h.982v.63c.2-.406.6-.694 1.166-.694.638 0 1.078.27 1.253.767.184-.415.695-.767 1.334-.767.87 0 1.43.63 1.43 1.485v2.603h-.974v-2.307c0-.567-.296-.943-.767-.943-.528 0-.855.376-.855.943v2.307h-.975v-2.307c0-.567-.295-.943-.767-.943-.519 0-.846.376-.846.943v2.307h-.982v-4.024zM3.69 30.506h3.713v.91H4.735v1.422h2.141v.91h-2.14v2.348H3.69v-5.59zM9.672 32.894c-.622 0-.87.535-.87 1.302v1.9h-.983v-4.024h.983v.71c.2-.511.51-.71 1.03-.71h.471v.822h-.63zM14.448 34.754c-.152.854-.902 1.405-1.893 1.405-1.318 0-2.052-1.038-2.052-2.092s.655-2.06 1.973-2.06c1.317 0 1.956.982 1.956 1.94 0 .135-.009.255-.016.335h-2.97c.072.647.486 1.063 1.11 1.063.503 0 .83-.208.935-.591h.958-.001zm-2.979-1.118h1.98c-.04-.51-.39-.894-.973-.894-.551 0-.903.287-1.007.894zM18.84 34.754c-.152.854-.902 1.405-1.893 1.405-1.318 0-2.052-1.038-2.052-2.092s.655-2.06 1.973-2.06 1.956.982 1.956 1.94c0 .135-.008.255-.016.335h-2.97c.071.647.487 1.063 1.11 1.063.503 0 .83-.208.934-.591h.958zm-2.979-1.118h1.981c-.04-.51-.391-.894-.974-.894-.55 0-.902.287-1.006.894zM21.347 30.506h1.813c1.54 0 2.858.926 2.858 2.795 0 1.868-1.317 2.795-2.858 2.795h-1.813v-5.59zm1.718 4.672c.966 0 1.884-.495 1.884-1.877 0-1.382-.919-1.885-1.884-1.885h-.671v3.762h.67zM30.125 33.509v2.587h-.967v-.6c-.168.4-.63.663-1.206.663-.799 0-1.341-.51-1.341-1.206 0-.783.607-1.27 1.509-1.27h.743c.2 0 .295-.111.295-.27 0-.392-.304-.671-.823-.671-.519 0-.83.327-.846.687h-.878c.047-.8.727-1.422 1.773-1.422 1.045 0 1.74.591 1.74 1.502zm-.967.886v-.063h-.902c-.415 0-.695.23-.695.582 0 .311.255.52.623.52.615 0 .974-.432.974-1.039zM32.305 30.857v1.215h1.118v.822h-1.118v1.756c0 .408.216.615.583.615h.535v.83h-.647c-.879 0-1.454-.51-1.454-1.405v-1.796h-.791v-.822h.535c.16 0 .255-.072.255-.264v-.95h.984zM37.296 33.509v2.587h-.966v-.6c-.168.4-.631.663-1.206.663-.799 0-1.341-.51-1.341-1.206 0-.783.606-1.27 1.508-1.27h.743c.2 0 .296-.111.296-.27 0-.392-.304-.671-.823-.671-.52 0-.83.327-.846.687h-.878c.047-.8.727-1.422 1.772-1.422 1.046 0 1.741.591 1.741 1.502zm-.966.886v-.063h-.902c-.415 0-.696.23-.696.582 0 .311.256.52.624.52.615 0 .974-.432.974-1.039z" fill="#072842"/>
        <path d="M37.683 28.597a3.925 3.925 0 1 0 0-7.85 3.925 3.925 0 0 0 0 7.85z" fill="#FFC413"/>
        <path d="M37.683 27.84a3.167 3.167 0 1 0 0-6.334 3.167 3.167 0 0 0 0 6.333z" fill="#FFD43C"/>
        <path d="M37.683 26.893a2.22 2.22 0 1 0 0-4.441 2.22 2.22 0 0 0 0 4.441z" fill="#FBE390"/>
    </g>
    <defs>
        <linearGradient id="eln098aohb" x1="-14.961" y1="3.466" x2="64.287" y2="43.203" gradientUnits="userSpaceOnUse">
            <stop offset=".33" stop-color="#072842"/>
            <stop offset=".84" stop-color="#00152D"/>
        </linearGradient>
        <linearGradient id="7fobjkbsod" x1="64.365" y1="11.201" x2="-26.255" y2="57.817" gradientUnits="userSpaceOnUse">
            <stop offset=".24" stop-color="#F48A75"/>
            <stop offset=".29" stop-color="#F69869"/>
            <stop offset=".4" stop-color="#FAB950"/>
            <stop offset=".5" stop-color="#FDCC41"/>
            <stop offset=".56" stop-color="#FFD43C"/>
        </linearGradient>
        <clipPath id="26rxgsd0ga">
            <path fill="#fff" d="M0 0h44v44H0z"/>
        </clipPath>
    </defs>
</svg>
