<svg width="177" height="177" viewBox="0 0 177 177" fill="none" xmlns="http://www.w3.org/2000/svg">
<g clip-path="url(#clip0_706_545)">
<rect width="177" height="177" rx="10" fill="white"/>
<path d="M167 2H10C5.58172 2 2 5.58172 2 10V167C2 171.418 5.58172 175 10 175H167C171.418 175 175 171.418 175 167V10C175 5.58172 171.418 2 167 2Z" stroke="#F9E8D0" stroke-width="4"/>
<path d="M165 12H12V165H165V12Z" fill="white"/>
<mask id="mask0_706_545" style="mask-type:luminance" maskUnits="userSpaceOnUse" x="15" y="15" width="147" height="147">
<path d="M21.486 62.184H15.672V67.998H21.486V62.184Z" fill="white"/>
<path d="M21.486 85.44H15.672V91.254H21.486V85.44Z" fill="white"/>
<path d="M21.486 91.254H15.672V97.068H21.486V91.254Z" fill="white"/>
<path d="M21.486 97.068H15.672V102.882H21.486V97.068Z" fill="white"/>
<path d="M21.486 102.882H15.672V108.696H21.486V102.882Z" fill="white"/>
<path d="M27.3 62.184H21.486V67.998H27.3V62.184Z" fill="white"/>
<path d="M27.3 91.254H21.486V97.068H27.3V91.254Z" fill="white"/>
<path d="M27.3 102.882H21.486V108.696H27.3V102.882Z" fill="white"/>
<path d="M33.114 62.184H27.3V67.998H33.114V62.184Z" fill="white"/>
<path d="M33.114 79.626H27.3V85.44H33.114V79.626Z" fill="white"/>
<path d="M33.114 85.44H27.3V91.254H33.114V85.44Z" fill="white"/>
<path d="M33.114 102.882H27.3V108.696H33.114V102.882Z" fill="white"/>
<path d="M38.928 62.184H33.114V67.998H38.928V62.184Z" fill="white"/>
<path d="M38.928 67.998H33.114V73.812H38.928V67.998Z" fill="white"/>
<path d="M38.928 73.812H33.114V79.626H38.928V73.812Z" fill="white"/>
<path d="M38.928 79.626H33.114V85.44H38.928V79.626Z" fill="white"/>
<path d="M38.928 97.068H33.114V102.882H38.928V97.068Z" fill="white"/>
<path d="M44.742 62.184H38.928V67.998H44.742V62.184Z" fill="white"/>
<path d="M44.742 85.44H38.928V91.254H44.742V85.44Z" fill="white"/>
<path d="M44.742 91.254H38.928V97.068H44.742V91.254Z" fill="white"/>
<path d="M44.742 97.068H38.928V102.882H44.742V97.068Z" fill="white"/>
<path d="M44.742 102.882H38.928V108.696H44.742V102.882Z" fill="white"/>
<path d="M44.742 108.696H38.928V114.51H44.742V108.696Z" fill="white"/>
<path d="M50.556 67.998H44.742V73.812H50.556V67.998Z" fill="white"/>
<path d="M50.556 85.44H44.742V91.254H50.556V85.44Z" fill="white"/>
<path d="M50.556 97.068H44.742V102.882H50.556V97.068Z" fill="white"/>
<path d="M50.556 102.882H44.742V108.696H50.556V102.882Z" fill="white"/>
<path d="M50.556 108.696H44.742V114.51H50.556V108.696Z" fill="white"/>
<path d="M56.37 62.184H50.556V67.998H56.37V62.184Z" fill="white"/>
<path d="M56.37 73.812H50.556V79.626H56.37V73.812Z" fill="white"/>
<path d="M56.37 85.44H50.556V91.254H56.37V85.44Z" fill="white"/>
<path d="M56.37 97.068H50.556V102.882H56.37V97.068Z" fill="white"/>
<path d="M56.37 108.696H50.556V114.51H56.37V108.696Z" fill="white"/>
<path d="M62.184 62.184H56.37V67.998H62.184V62.184Z" fill="white"/>
<path d="M62.184 67.998H56.37V73.812H62.184V67.998Z" fill="white"/>
<path d="M62.184 73.812H56.37V79.626H62.184V73.812Z" fill="white"/>
<path d="M62.184 91.254H56.37V97.068H62.184V91.254Z" fill="white"/>
<path d="M62.184 102.882H56.37V108.696H62.184V102.882Z" fill="white"/>
<path d="M67.998 21.486H62.184V27.3H67.998V21.486Z" fill="white"/>
<path d="M67.998 27.3H62.184V33.114H67.998V27.3Z" fill="white"/>
<path d="M67.998 38.928H62.184V44.742H67.998V38.928Z" fill="white"/>
<path d="M67.998 50.556H62.184V56.37H67.998V50.556Z" fill="white"/>
<path d="M67.998 56.37H62.184V62.184H67.998V56.37Z" fill="white"/>
<path d="M67.998 73.812H62.184V79.626H67.998V73.812Z" fill="white"/>
<path d="M67.998 91.254H62.184V97.068H67.998V91.254Z" fill="white"/>
<path d="M67.998 97.068H62.184V102.882H67.998V97.068Z" fill="white"/>
<path d="M67.998 102.882H62.184V108.696H67.998V102.882Z" fill="white"/>
<path d="M67.998 108.696H62.184V114.51H67.998V108.696Z" fill="white"/>
<path d="M67.998 120.324H62.184V126.138H67.998V120.324Z" fill="white"/>
<path d="M67.998 131.952H62.184V137.766H67.998V131.952Z" fill="white"/>
<path d="M67.998 137.766H62.184V143.58H67.998V137.766Z" fill="white"/>
<path d="M67.998 143.58H62.184V149.394H67.998V143.58Z" fill="white"/>
<path d="M67.998 149.394H62.184V155.208H67.998V149.394Z" fill="white"/>
<path d="M67.998 155.208H62.184V161.022H67.998V155.208Z" fill="white"/>
<path d="M73.812 27.3H67.998V33.114H73.812V27.3Z" fill="white"/>
<path d="M73.812 33.114H67.998V38.928H73.812V33.114Z" fill="white"/>
<path d="M73.812 44.742H67.998V50.556H73.812V44.742Z" fill="white"/>
<path d="M73.812 56.37H67.998V62.184H73.812V56.37Z" fill="white"/>
<path d="M73.812 62.184H67.998V67.998H73.812V62.184Z" fill="white"/>
<path d="M73.812 79.626H67.998V85.44H73.812V79.626Z" fill="white"/>
<path d="M73.812 108.696H67.998V114.51H73.812V108.696Z" fill="white"/>
<path d="M73.812 120.324H67.998V126.138H73.812V120.324Z" fill="white"/>
<path d="M73.812 155.208H67.998V161.022H73.812V155.208Z" fill="white"/>
<path d="M79.626 21.486H73.812V27.3H79.626V21.486Z" fill="white"/>
<path d="M79.626 27.3H73.812V33.114H79.626V27.3Z" fill="white"/>
<path d="M79.626 38.928H73.812V44.742H79.626V38.928Z" fill="white"/>
<path d="M79.626 50.556H73.812V56.37H79.626V50.556Z" fill="white"/>
<path d="M79.626 62.184H73.812V67.998H79.626V62.184Z" fill="white"/>
<path d="M79.626 73.812H73.812V79.626H79.626V73.812Z" fill="white"/>
<path d="M79.626 79.626H73.812V85.44H79.626V79.626Z" fill="white"/>
<path d="M79.626 91.254H73.812V97.068H79.626V91.254Z" fill="white"/>
<path d="M79.626 108.696H73.812V114.51H79.626V108.696Z" fill="white"/>
<path d="M79.626 114.51H73.812V120.324H79.626V114.51Z" fill="white"/>
<path d="M79.626 120.324H73.812V126.138H79.626V120.324Z" fill="white"/>
<path d="M79.626 126.138H73.812V131.952H79.626V126.138Z" fill="white"/>
<path d="M79.626 143.58H73.812V149.394H79.626V143.58Z" fill="white"/>
<path d="M79.626 149.394H73.812V155.208H79.626V149.394Z" fill="white"/>
<path d="M79.626 155.208H73.812V161.022H79.626V155.208Z" fill="white"/>
<path d="M85.4399 15.672H79.6259V21.486H85.4399V15.672Z" fill="white"/>
<path d="M85.4399 21.486H79.6259V27.3H85.4399V21.486Z" fill="white"/>
<path d="M85.4399 27.3H79.6259V33.114H85.4399V27.3Z" fill="white"/>
<path d="M85.4399 33.114H79.6259V38.928H85.4399V33.114Z" fill="white"/>
<path d="M85.4399 56.37H79.6259V62.184H85.4399V56.37Z" fill="white"/>
<path d="M85.4399 85.44H79.6259V91.254H85.4399V85.44Z" fill="white"/>
<path d="M85.4399 91.254H79.6259V97.068H85.4399V91.254Z" fill="white"/>
<path d="M85.4399 97.068H79.6259V102.882H85.4399V97.068Z" fill="white"/>
<path d="M85.4399 108.696H79.6259V114.51H85.4399V108.696Z" fill="white"/>
<path d="M85.4399 120.324H79.6259V126.138H85.4399V120.324Z" fill="white"/>
<path d="M85.4399 149.394H79.6259V155.208H85.4399V149.394Z" fill="white"/>
<path d="M91.2539 15.672H85.4399V21.486H91.2539V15.672Z" fill="white"/>
<path d="M91.2539 33.114H85.4399V38.928H91.2539V33.114Z" fill="white"/>
<path d="M91.2539 38.928H85.4399V44.742H91.2539V38.928Z" fill="white"/>
<path d="M91.2539 50.556H85.4399V56.37H91.2539V50.556Z" fill="white"/>
<path d="M91.2539 79.626H85.4399V85.44H91.2539V79.626Z" fill="white"/>
<path d="M91.2539 97.068H85.4399V102.882H91.2539V97.068Z" fill="white"/>
<path d="M91.2539 114.51H85.4399V120.324H91.2539V114.51Z" fill="white"/>
<path d="M91.2539 120.324H85.4399V126.138H91.2539V120.324Z" fill="white"/>
<path d="M91.2539 126.138H85.4399V131.952H91.2539V126.138Z" fill="white"/>
<path d="M91.2539 137.766H85.4399V143.58H91.2539V137.766Z" fill="white"/>
<path d="M91.2539 149.394H85.4399V155.208H91.2539V149.394Z" fill="white"/>
<path d="M91.2539 155.208H85.4399V161.022H91.2539V155.208Z" fill="white"/>
<path d="M97.068 21.486H91.254V27.3H97.068V21.486Z" fill="white"/>
<path d="M97.068 44.742H91.254V50.556H97.068V44.742Z" fill="white"/>
<path d="M97.068 62.184H91.254V67.998H97.068V62.184Z" fill="white"/>
<path d="M97.068 73.812H91.254V79.626H97.068V73.812Z" fill="white"/>
<path d="M97.068 85.44H91.254V91.254H97.068V85.44Z" fill="white"/>
<path d="M97.068 108.696H91.254V114.51H97.068V108.696Z" fill="white"/>
<path d="M97.068 120.324H91.254V126.138H97.068V120.324Z" fill="white"/>
<path d="M97.068 137.766H91.254V143.58H97.068V137.766Z" fill="white"/>
<path d="M97.068 155.208H91.254V161.022H97.068V155.208Z" fill="white"/>
<path d="M102.882 15.672H97.068V21.486H102.882V15.672Z" fill="white"/>
<path d="M102.882 33.114H97.068V38.928H102.882V33.114Z" fill="white"/>
<path d="M102.882 44.742H97.068V50.556H102.882V44.742Z" fill="white"/>
<path d="M102.882 50.556H97.068V56.37H102.882V50.556Z" fill="white"/>
<path d="M102.882 62.184H97.068V67.998H102.882V62.184Z" fill="white"/>
<path d="M102.882 67.998H97.068V73.812H102.882V67.998Z" fill="white"/>
<path d="M102.882 73.812H97.068V79.626H102.882V73.812Z" fill="white"/>
<path d="M102.882 85.44H97.068V91.254H102.882V85.44Z" fill="white"/>
<path d="M102.882 97.068H97.068V102.882H102.882V97.068Z" fill="white"/>
<path d="M102.882 114.51H97.068V120.324H102.882V114.51Z" fill="white"/>
<path d="M102.882 120.324H97.068V126.138H102.882V120.324Z" fill="white"/>
<path d="M102.882 126.138H97.068V131.952H102.882V126.138Z" fill="white"/>
<path d="M102.882 143.58H97.068V149.394H102.882V143.58Z" fill="white"/>
<path d="M102.882 149.394H97.068V155.208H102.882V149.394Z" fill="white"/>
<path d="M102.882 155.208H97.068V161.022H102.882V155.208Z" fill="white"/>
<path d="M108.696 21.486H102.882V27.3H108.696V21.486Z" fill="white"/>
<path d="M108.696 62.184H102.882V67.998H108.696V62.184Z" fill="white"/>
<path d="M108.696 67.998H102.882V73.812H108.696V67.998Z" fill="white"/>
<path d="M108.696 73.812H102.882V79.626H108.696V73.812Z" fill="white"/>
<path d="M108.696 79.626H102.882V85.44H108.696V79.626Z" fill="white"/>
<path d="M108.696 91.254H102.882V97.068H108.696V91.254Z" fill="white"/>
<path d="M108.696 102.882H102.882V108.696H108.696V102.882Z" fill="white"/>
<path d="M108.696 120.324H102.882V126.138H108.696V120.324Z" fill="white"/>
<path d="M108.696 131.952H102.882V137.766H108.696V131.952Z" fill="white"/>
<path d="M108.696 149.394H102.882V155.208H108.696V149.394Z" fill="white"/>
<path d="M114.51 15.672H108.696V21.486H114.51V15.672Z" fill="white"/>
<path d="M114.51 33.114H108.696V38.928H114.51V33.114Z" fill="white"/>
<path d="M114.51 50.556H108.696V56.37H114.51V50.556Z" fill="white"/>
<path d="M114.51 56.37H108.696V62.184H114.51V56.37Z" fill="white"/>
<path d="M114.51 85.44H108.696V91.254H114.51V85.44Z" fill="white"/>
<path d="M114.51 97.068H108.696V102.882H114.51V97.068Z" fill="white"/>
<path d="M114.51 102.882H108.696V108.696H114.51V102.882Z" fill="white"/>
<path d="M114.51 108.696H108.696V114.51H114.51V108.696Z" fill="white"/>
<path d="M114.51 114.51H108.696V120.324H114.51V114.51Z" fill="white"/>
<path d="M114.51 120.324H108.696V126.138H114.51V120.324Z" fill="white"/>
<path d="M114.51 126.138H108.696V131.952H114.51V126.138Z" fill="white"/>
<path d="M114.51 131.952H108.696V137.766H114.51V131.952Z" fill="white"/>
<path d="M114.51 137.766H108.696V143.58H114.51V137.766Z" fill="white"/>
<path d="M120.324 62.184H114.51V67.998H120.324V62.184Z" fill="white"/>
<path d="M120.324 67.998H114.51V73.812H120.324V67.998Z" fill="white"/>
<path d="M120.324 73.812H114.51V79.626H120.324V73.812Z" fill="white"/>
<path d="M120.324 79.626H114.51V85.44H120.324V79.626Z" fill="white"/>
<path d="M120.324 85.44H114.51V91.254H120.324V85.44Z" fill="white"/>
<path d="M120.324 91.254H114.51V97.068H120.324V91.254Z" fill="white"/>
<path d="M120.324 108.696H114.51V114.51H120.324V108.696Z" fill="white"/>
<path d="M120.324 131.952H114.51V137.766H120.324V131.952Z" fill="white"/>
<path d="M120.324 137.766H114.51V143.58H120.324V137.766Z" fill="white"/>
<path d="M120.324 149.394H114.51V155.208H120.324V149.394Z" fill="white"/>
<path d="M120.324 155.208H114.51V161.022H120.324V155.208Z" fill="white"/>
<path d="M126.138 62.184H120.324V67.998H126.138V62.184Z" fill="white"/>
<path d="M126.138 67.998H120.324V73.812H126.138V67.998Z" fill="white"/>
<path d="M126.138 102.882H120.324V108.696H126.138V102.882Z" fill="white"/>
<path d="M126.138 108.696H120.324V114.51H126.138V108.696Z" fill="white"/>
<path d="M126.138 120.324H120.324V126.138H126.138V120.324Z" fill="white"/>
<path d="M126.138 131.952H120.324V137.766H126.138V131.952Z" fill="white"/>
<path d="M126.138 137.766H120.324V143.58H126.138V137.766Z" fill="white"/>
<path d="M126.138 149.394H120.324V155.208H126.138V149.394Z" fill="white"/>
<path d="M126.138 155.208H120.324V161.022H126.138V155.208Z" fill="white"/>
<path d="M131.952 67.998H126.138V73.812H131.952V67.998Z" fill="white"/>
<path d="M131.952 79.626H126.138V85.44H131.952V79.626Z" fill="white"/>
<path d="M131.952 97.068H126.138V102.882H131.952V97.068Z" fill="white"/>
<path d="M131.952 108.696H126.138V114.51H131.952V108.696Z" fill="white"/>
<path d="M131.952 131.952H126.138V137.766H131.952V131.952Z" fill="white"/>
<path d="M131.952 137.766H126.138V143.58H131.952V137.766Z" fill="white"/>
<path d="M131.952 149.394H126.138V155.208H131.952V149.394Z" fill="white"/>
<path d="M137.766 62.184H131.952V67.998H137.766V62.184Z" fill="white"/>
<path d="M137.766 79.626H131.952V85.44H137.766V79.626Z" fill="white"/>
<path d="M137.766 85.44H131.952V91.254H137.766V85.44Z" fill="white"/>
<path d="M137.766 91.254H131.952V97.068H137.766V91.254Z" fill="white"/>
<path d="M137.766 97.068H131.952V102.882H137.766V97.068Z" fill="white"/>
<path d="M137.766 108.696H131.952V114.51H137.766V108.696Z" fill="white"/>
<path d="M137.766 114.51H131.952V120.324H137.766V114.51Z" fill="white"/>
<path d="M137.766 120.324H131.952V126.138H137.766V120.324Z" fill="white"/>
<path d="M137.766 126.138H131.952V131.952H137.766V126.138Z" fill="white"/>
<path d="M137.766 131.952H131.952V137.766H137.766V131.952Z" fill="white"/>
<path d="M137.766 137.766H131.952V143.58H137.766V137.766Z" fill="white"/>
<path d="M137.766 149.394H131.952V155.208H137.766V149.394Z" fill="white"/>
<path d="M137.766 155.208H131.952V161.022H137.766V155.208Z" fill="white"/>
<path d="M143.58 91.254H137.766V97.068H143.58V91.254Z" fill="white"/>
<path d="M143.58 97.068H137.766V102.882H143.58V97.068Z" fill="white"/>
<path d="M143.58 114.51H137.766V120.324H143.58V114.51Z" fill="white"/>
<path d="M143.58 126.138H137.766V131.952H143.58V126.138Z" fill="white"/>
<path d="M143.58 131.952H137.766V137.766H143.58V131.952Z" fill="white"/>
<path d="M143.58 137.766H137.766V143.58H143.58V137.766Z" fill="white"/>
<path d="M143.58 143.58H137.766V149.394H143.58V143.58Z" fill="white"/>
<path d="M149.394 62.184H143.58V67.998H149.394V62.184Z" fill="white"/>
<path d="M149.394 67.998H143.58V73.812H149.394V67.998Z" fill="white"/>
<path d="M149.394 85.44H143.58V91.254H149.394V85.44Z" fill="white"/>
<path d="M149.394 91.254H143.58V97.068H149.394V91.254Z" fill="white"/>
<path d="M149.394 97.068H143.58V102.882H149.394V97.068Z" fill="white"/>
<path d="M149.394 102.882H143.58V108.696H149.394V102.882Z" fill="white"/>
<path d="M149.394 131.952H143.58V137.766H149.394V131.952Z" fill="white"/>
<path d="M149.394 155.208H143.58V161.022H149.394V155.208Z" fill="white"/>
<path d="M155.208 62.184H149.394V67.998H155.208V62.184Z" fill="white"/>
<path d="M155.208 67.998H149.394V73.812H155.208V67.998Z" fill="white"/>
<path d="M155.208 79.626H149.394V85.44H155.208V79.626Z" fill="white"/>
<path d="M155.208 85.44H149.394V91.254H155.208V85.44Z" fill="white"/>
<path d="M155.208 97.068H149.394V102.882H155.208V97.068Z" fill="white"/>
<path d="M155.208 102.882H149.394V108.696H155.208V102.882Z" fill="white"/>
<path d="M155.208 108.696H149.394V114.51H155.208V108.696Z" fill="white"/>
<path d="M155.208 120.324H149.394V126.138H155.208V120.324Z" fill="white"/>
<path d="M155.208 131.952H149.394V137.766H155.208V131.952Z" fill="white"/>
<path d="M155.208 137.766H149.394V143.58H155.208V137.766Z" fill="white"/>
<path d="M155.208 149.394H149.394V155.208H155.208V149.394Z" fill="white"/>
<path d="M161.022 67.998H155.208V73.812H161.022V67.998Z" fill="white"/>
<path d="M161.022 79.626H155.208V85.44H161.022V79.626Z" fill="white"/>
<path d="M161.022 91.254H155.208V97.068H161.022V91.254Z" fill="white"/>
<path d="M161.022 97.068H155.208V102.882H161.022V97.068Z" fill="white"/>
<path d="M161.022 102.882H155.208V108.696H161.022V102.882Z" fill="white"/>
<path d="M161.022 108.696H155.208V114.51H161.022V108.696Z" fill="white"/>
<path d="M161.022 126.138H155.208V131.952H161.022V126.138Z" fill="white"/>
<path d="M161.022 149.394H155.208V155.208H161.022V149.394Z" fill="white"/>
<path d="M161.022 155.208H155.208V161.022H161.022V155.208Z" fill="white"/>
<path fill-rule="evenodd" clip-rule="evenodd" d="M15.672 15.672V56.37H56.37V15.672H15.672ZM21.486 21.486H50.556V50.556H21.486V21.486Z" fill="white"/>
<path d="M44.742 27.3H27.3V44.742H44.742V27.3Z" fill="white"/>
<path fill-rule="evenodd" clip-rule="evenodd" d="M161.022 15.672L120.324 15.672V56.37H161.022V15.672ZM155.208 21.486V50.556H126.138V21.486H155.208Z" fill="white"/>
<path d="M149.394 44.742V27.3H131.952V44.742H149.394Z" fill="white"/>
<path fill-rule="evenodd" clip-rule="evenodd" d="M15.672 161.022H56.37V120.324H15.672L15.672 161.022ZM21.486 155.208V126.138H50.556V155.208H21.486Z" fill="white"/>
<path d="M27.3 131.952V149.394H44.742V131.952H27.3Z" fill="white"/>
</mask>
<g mask="url(#mask0_706_545)">
<path d="M165 12H12V165H165V12Z" fill="black"/>
</g>
</g>
<defs>
<clipPath id="clip0_706_545">
<rect width="177" height="177" rx="10" fill="white"/>
</clipPath>
</defs>
</svg>
